<?xml version="1.0" encoding="UTF-8" standalone="no"?>
<!DOCTYPE svg PUBLIC "-//W3C//DTD SVG 1.1//EN"
 "http://www.w3.org/Graphics/SVG/1.1/DTD/svg11.dtd">
<!-- Generated by graphviz version 7.0.6 (20230106.0513)
 -->
<!-- Pages: 1 -->
<svg width="753pt" height="260pt"
 viewBox="0.00 0.00 752.50 260.00" xmlns="http://www.w3.org/2000/svg" xmlns:xlink="http://www.w3.org/1999/xlink">
<g id="graph0" class="graph" transform="scale(1 1) rotate(0) translate(4 256)">
<polygon fill="white" stroke="none" points="-4,4 -4,-256 748.5,-256 748.5,4 -4,4"/>
<!-- Functor -->
<g id="node1" class="node">
<title>Functor</title>
<polygon fill="none" stroke="black" points="127.5,-252 68.5,-252 68.5,-216 127.5,-216 127.5,-252"/>
<text text-anchor="middle" x="98" y="-230.3" font-family="Times,serif" font-size="14.00">Functor</text>
</g>
<!-- Applicative -->
<g id="node2" class="node">
<title>Applicative</title>
<polygon fill="none" stroke="black" points="228,-180 148,-180 148,-144 228,-144 228,-180"/>
<text text-anchor="middle" x="188" y="-158.3" font-family="Times,serif" font-size="14.00">Applicative</text>
</g>
<!-- Functor&#45;&gt;Applicative -->
<g id="edge1" class="edge">
<title>Functor&#45;&gt;Applicative</title>
<path fill="none" stroke="black" d="M120.25,-215.7C131.28,-207.11 144.79,-196.61 156.84,-187.24"/>
<polygon fill="black" stroke="black" points="158.76,-190.18 164.5,-181.28 154.46,-184.65 158.76,-190.18"/>
</g>
<!-- Traversable -->
<g id="node18" class="node">
<title>Traversable</title>
<polygon fill="none" stroke="black" points="176,-36 96,-36 96,0 176,0 176,-36"/>
<text text-anchor="middle" x="136" y="-14.3" font-family="Times,serif" font-size="14.00">Traversable</text>
</g>
<!-- Functor&#45;&gt;Traversable -->
<g id="edge25" class="edge">
<title>Functor&#45;&gt;Traversable</title>
<path fill="none" stroke="black" d="M101.05,-215.85C107.56,-179.14 122.92,-92.66 130.93,-47.53"/>
<polygon fill="black" stroke="black" points="134.37,-48.18 132.68,-37.72 127.48,-46.96 134.37,-48.18"/>
</g>
<!-- Comonad -->
<g id="node19" class="node">
<title>Comonad</title>
<polygon fill="none" stroke="grey" points="70,-180 0,-180 0,-144 70,-144 70,-180"/>
<text text-anchor="middle" x="35" y="-158.3" font-family="Times,serif" font-size="14.00">Comonad</text>
</g>
<!-- Functor&#45;&gt;Comonad -->
<g id="edge26" class="edge">
<title>Functor&#45;&gt;Comonad</title>
<path fill="none" stroke="black" d="M82.43,-215.7C75.03,-207.47 66.03,-197.48 57.88,-188.42"/>
<polygon fill="black" stroke="black" points="60.7,-186.32 51.41,-181.23 55.49,-191 60.7,-186.32"/>
</g>
<!-- Monad -->
<g id="node3" class="node">
<title>Monad</title>
<polygon fill="none" stroke="black" points="398,-108 342,-108 342,-72 398,-72 398,-108"/>
<text text-anchor="middle" x="370" y="-86.3" font-family="Times,serif" font-size="14.00">Monad</text>
</g>
<!-- Applicative&#45;&gt;Monad -->
<g id="edge2" class="edge">
<title>Applicative&#45;&gt;Monad</title>
<path fill="none" stroke="black" d="M228.34,-147.23C255.27,-137.82 291.65,-124.7 331.37,-108.52"/>
<polygon fill="black" stroke="black" points="332.5,-111.84 340.42,-104.81 329.84,-105.37 332.5,-111.84"/>
</g>
<!-- Alternative -->
<g id="node6" class="node">
<title>Alternative</title>
<polygon fill="none" stroke="black" points="241.5,-108 164.5,-108 164.5,-72 241.5,-72 241.5,-108"/>
<text text-anchor="middle" x="203" y="-86.3" font-family="Times,serif" font-size="14.00">Alternative</text>
</g>
<!-- Applicative&#45;&gt;Alternative -->
<g id="edge5" class="edge">
<title>Applicative&#45;&gt;Alternative</title>
<path fill="none" stroke="black" d="M191.71,-143.7C193.29,-136.32 195.17,-127.52 196.95,-119.25"/>
<polygon fill="black" stroke="black" points="200.34,-120.1 199.02,-109.58 193.5,-118.63 200.34,-120.1"/>
</g>
<!-- Applicative&#45;&gt;Traversable -->
<g id="edge23" class="edge">
<title>Applicative&#45;&gt;Traversable</title>
<path fill="none" stroke="black" stroke-dasharray="1,5" d="M175.07,-143.68C168.19,-133.7 160.11,-120.66 155,-108 145.36,-84.12 140.29,-54.57 137.88,-36.25"/>
</g>
<!-- MonadPlus -->
<g id="node7" class="node">
<title>MonadPlus</title>
<polygon fill="none" stroke="black" points="409.5,-36 330.5,-36 330.5,0 409.5,0 409.5,-36"/>
<text text-anchor="middle" x="370" y="-14.3" font-family="Times,serif" font-size="14.00">MonadPlus</text>
</g>
<!-- Monad&#45;&gt;MonadPlus -->
<g id="edge6" class="edge">
<title>Monad&#45;&gt;MonadPlus</title>
<path fill="none" stroke="black" d="M370,-71.7C370,-64.41 370,-55.73 370,-47.54"/>
<polygon fill="black" stroke="black" points="373.5,-47.62 370,-37.62 366.5,-47.62 373.5,-47.62"/>
</g>
<!-- MonadFix -->
<g id="node8" class="node">
<title>MonadFix</title>
<polygon fill="none" stroke="black" points="312,-36 238,-36 238,0 312,0 312,-36"/>
<text text-anchor="middle" x="275" y="-14.3" font-family="Times,serif" font-size="14.00">MonadFix</text>
</g>
<!-- Monad&#45;&gt;MonadFix -->
<g id="edge7" class="edge">
<title>Monad&#45;&gt;MonadFix</title>
<path fill="none" stroke="black" d="M346.52,-71.7C334.76,-63.03 320.33,-52.4 307.52,-42.96"/>
<polygon fill="black" stroke="black" points="309.89,-40.36 299.76,-37.24 305.74,-45.99 309.89,-40.36"/>
</g>
<!-- ArrowApply -->
<g id="node13" class="node">
<title>ArrowApply</title>
<polygon fill="none" stroke="black" points="514,-36 428,-36 428,0 514,0 514,-36"/>
<text text-anchor="middle" x="471" y="-14.3" font-family="Times,serif" font-size="14.00">ArrowApply</text>
</g>
<!-- Monad&#45;&gt;ArrowApply -->
<g id="edge20" class="edge">
<title>Monad&#45;&gt;ArrowApply</title>
<path fill="none" stroke="black" stroke-width="2" d="M395.23,-71.52C410.77,-60.74 430.61,-46.99 446.1,-36.26"/>
</g>
<!-- Apply -->
<g id="node4" class="node">
<title>Apply</title>
<polygon fill="none" stroke="grey" points="215,-252 161,-252 161,-216 215,-216 215,-252"/>
<text text-anchor="middle" x="188" y="-230.3" font-family="Times,serif" font-size="14.00">Apply</text>
</g>
<!-- Apply&#45;&gt;Applicative -->
<g id="edge3" class="edge">
<title>Apply&#45;&gt;Applicative</title>
<path fill="none" stroke="black" d="M188,-215.7C188,-208.41 188,-199.73 188,-191.54"/>
<polygon fill="black" stroke="black" points="191.5,-191.62 188,-181.62 184.5,-191.62 191.5,-191.62"/>
</g>
<!-- Semigroup -->
<g id="node5" class="node">
<title>Semigroup</title>
<polygon fill="none" stroke="black" points="408.5,-252 331.5,-252 331.5,-216 408.5,-216 408.5,-252"/>
<text text-anchor="middle" x="370" y="-230.3" font-family="Times,serif" font-size="14.00">Semigroup</text>
</g>
<!-- Semigroup&#45;&gt;Apply -->
<g id="edge4" class="edge">
<title>Semigroup&#45;&gt;Apply</title>
<path fill="none" stroke="black" stroke-dasharray="1,5" d="M331.04,-234C292.48,-234 253.93,-234 215.37,-234"/>
</g>
<!-- Monoid -->
<g id="node9" class="node">
<title>Monoid</title>
<polygon fill="none" stroke="black" points="400,-180 340,-180 340,-144 400,-144 400,-180"/>
<text text-anchor="middle" x="370" y="-158.3" font-family="Times,serif" font-size="14.00">Monoid</text>
</g>
<!-- Semigroup&#45;&gt;Monoid -->
<g id="edge8" class="edge">
<title>Semigroup&#45;&gt;Monoid</title>
<path fill="none" stroke="black" d="M370,-215.7C370,-208.41 370,-199.73 370,-191.54"/>
<polygon fill="black" stroke="black" points="373.5,-191.62 370,-181.62 366.5,-191.62 373.5,-191.62"/>
</g>
<!-- Monoid&#45;&gt;Applicative -->
<g id="edge9" class="edge">
<title>Monoid&#45;&gt;Applicative</title>
<path fill="none" stroke="black" stroke-dasharray="1,5" d="M339.53,-162C302.41,-162 265.29,-162 228.17,-162"/>
</g>
<!-- Monoid&#45;&gt;Monad -->
<g id="edge22" class="edge">
<title>Monoid&#45;&gt;Monad</title>
<path fill="none" stroke="black" stroke-dasharray="1,5" d="M370,-143.7C370,-132.85 370,-118.92 370,-108.1"/>
</g>
<!-- Monoid&#45;&gt;Alternative -->
<g id="edge11" class="edge">
<title>Monoid&#45;&gt;Alternative</title>
<path fill="none" stroke="black" stroke-dasharray="1,5" d="M339.76,-148.32C312.31,-136.82 271.69,-119.79 241.85,-107.28"/>
</g>
<!-- Monoid&#45;&gt;MonadPlus -->
<g id="edge12" class="edge">
<title>Monoid&#45;&gt;MonadPlus</title>
<path fill="none" stroke="black" stroke-dasharray="1,5" d="M386.04,-143.85C394.01,-134.12 402.83,-121.27 407,-108 411.8,-92.74 411.8,-87.26 407,-72 402.83,-58.73 394.01,-45.88 386.04,-36.15"/>
</g>
<!-- Category -->
<g id="node10" class="node">
<title>Category</title>
<polygon fill="none" stroke="black" points="562,-180 496,-180 496,-144 562,-144 562,-180"/>
<text text-anchor="middle" x="529" y="-158.3" font-family="Times,serif" font-size="14.00">Category</text>
</g>
<!-- Monoid&#45;&gt;Category -->
<g id="edge10" class="edge">
<title>Monoid&#45;&gt;Category</title>
<path fill="none" stroke="black" stroke-dasharray="1,5" d="M400.43,-162C432.16,-162 463.88,-162 495.6,-162"/>
</g>
<!-- ArrowPlus -->
<g id="node16" class="node">
<title>ArrowPlus</title>
<polygon fill="none" stroke="black" points="744.5,-108 669.5,-108 669.5,-72 744.5,-72 744.5,-108"/>
<text text-anchor="middle" x="707" y="-86.3" font-family="Times,serif" font-size="14.00">ArrowPlus</text>
</g>
<!-- Monoid&#45;&gt;ArrowPlus -->
<g id="edge19" class="edge">
<title>Monoid&#45;&gt;ArrowPlus</title>
<path fill="none" stroke="black" stroke-dasharray="1,5" d="M400.49,-156.14C464.7,-145.78 611.96,-121.42 661,-108 663.63,-107.28 666.32,-106.48 669.01,-105.62"/>
</g>
<!-- Foldable -->
<g id="node17" class="node">
<title>Foldable</title>
<polygon fill="none" stroke="black" points="324,-108 260,-108 260,-72 324,-72 324,-108"/>
<text text-anchor="middle" x="292" y="-86.3" font-family="Times,serif" font-size="14.00">Foldable</text>
</g>
<!-- Monoid&#45;&gt;Foldable -->
<g id="edge21" class="edge">
<title>Monoid&#45;&gt;Foldable</title>
<path fill="none" stroke="black" stroke-dasharray="1,5" d="M350.72,-143.7C338.72,-132.93 323.34,-119.12 311.33,-108.35"/>
</g>
<!-- Arrow -->
<g id="node11" class="node">
<title>Arrow</title>
<polygon fill="none" stroke="black" points="556,-108 502,-108 502,-72 556,-72 556,-108"/>
<text text-anchor="middle" x="529" y="-86.3" font-family="Times,serif" font-size="14.00">Arrow</text>
</g>
<!-- Category&#45;&gt;Arrow -->
<g id="edge13" class="edge">
<title>Category&#45;&gt;Arrow</title>
<path fill="none" stroke="black" d="M529,-143.7C529,-136.41 529,-127.73 529,-119.54"/>
<polygon fill="black" stroke="black" points="532.5,-119.62 529,-109.62 525.5,-119.62 532.5,-119.62"/>
</g>
<!-- ArrowChoice -->
<g id="node12" class="node">
<title>ArrowChoice</title>
<polygon fill="none" stroke="black" points="622,-36 532,-36 532,0 622,0 622,-36"/>
<text text-anchor="middle" x="577" y="-14.3" font-family="Times,serif" font-size="14.00">ArrowChoice</text>
</g>
<!-- Arrow&#45;&gt;ArrowChoice -->
<g id="edge14" class="edge">
<title>Arrow&#45;&gt;ArrowChoice</title>
<path fill="none" stroke="black" d="M540.87,-71.7C546.27,-63.81 552.79,-54.3 558.8,-45.55"/>
<polygon fill="black" stroke="black" points="561.65,-47.58 564.42,-37.35 555.87,-43.62 561.65,-47.58"/>
</g>
<!-- Arrow&#45;&gt;ArrowApply -->
<g id="edge15" class="edge">
<title>Arrow&#45;&gt;ArrowApply</title>
<path fill="none" stroke="black" d="M514.66,-71.7C507.92,-63.56 499.74,-53.69 492.3,-44.7"/>
<polygon fill="black" stroke="black" points="495.21,-42.74 486.14,-37.27 489.82,-47.2 495.21,-42.74"/>
</g>
<!-- ArrowLoop -->
<g id="node14" class="node">
<title>ArrowLoop</title>
<polygon fill="none" stroke="black" points="720,-36 640,-36 640,0 720,0 720,-36"/>
<text text-anchor="middle" x="680" y="-14.3" font-family="Times,serif" font-size="14.00">ArrowLoop</text>
</g>
<!-- Arrow&#45;&gt;ArrowLoop -->
<g id="edge16" class="edge">
<title>Arrow&#45;&gt;ArrowLoop</title>
<path fill="none" stroke="black" d="M556.34,-76.32C577.39,-66.57 607,-52.84 631.97,-41.26"/>
<polygon fill="black" stroke="black" points="633.38,-44.47 640.98,-37.09 630.43,-38.12 633.38,-44.47"/>
</g>
<!-- ArrowZero -->
<g id="node15" class="node">
<title>ArrowZero</title>
<polygon fill="none" stroke="black" points="651.5,-108 574.5,-108 574.5,-72 651.5,-72 651.5,-108"/>
<text text-anchor="middle" x="613" y="-86.3" font-family="Times,serif" font-size="14.00">ArrowZero</text>
</g>
<!-- Arrow&#45;&gt;ArrowZero -->
<g id="edge17" class="edge">
<title>Arrow&#45;&gt;ArrowZero</title>
<path fill="none" stroke="black" d="M556.23,-90C558.51,-90 560.78,-90 563.05,-90"/>
<polygon fill="black" stroke="black" points="562.9,-93.5 572.9,-90 562.9,-86.5 562.9,-93.5"/>
</g>
<!-- ArrowZero&#45;&gt;ArrowPlus -->
<g id="edge18" class="edge">
<title>ArrowZero&#45;&gt;ArrowPlus</title>
<path fill="none" stroke="black" d="M651.92,-90C653.89,-90 655.87,-90 657.84,-90"/>
<polygon fill="black" stroke="black" points="657.62,-93.5 667.62,-90 657.62,-86.5 657.62,-93.5"/>
</g>
<!-- Foldable&#45;&gt;Traversable -->
<g id="edge24" class="edge">
<title>Foldable&#45;&gt;Traversable</title>
<path fill="none" stroke="black" d="M259.68,-74.5C238.22,-64.87 209.64,-52.05 185.37,-41.15"/>
<polygon fill="black" stroke="black" points="186.84,-37.98 176.29,-37.08 183.98,-44.36 186.84,-37.98"/>
</g>
</g>
</svg>
