<svg xmlns="http://www.w3.org/2000/svg" xmlns:xlink="http://www.w3.org/1999/xlink" width="408.12" height="169.293" viewBox="0 0 306.09 126.97"><symbol id="a"><path d="M.58.605c0 .036.002.047.079.047h.024v.031C.648.68.574.68.536.68.498.68.423.68.388.683V.652h.024C.489.652.491.641.491.605V.371H.192v.234c0 .036.002.047.079.047h.024v.031C.26.68.186.68.148.68.11.68.035.68 0 .683V.652h.024C.101.652.103.641.103.605V.078C.103.042.101.031.024.031H0V0c.035.003.109.003.147.003C.185.003.26.003.295 0v.031H.271C.194.031.192.042.192.078V.34h.299V.078C.491.042.489.031.412.031H.388V0c.035.003.109.003.147.003.038 0 .113 0 .148-.003v.031H.659C.582.031.58.042.58.078v.527z"/></symbol><symbol id="b"><path d="M.443.225c0 .128-.1.234-.221.234C.097.459 0 .35 0 .225 0 .096.104 0 .221 0c.121 0 .222.098.222.225m-.221-.2a.13.13 0 0 0-.114.067C.083.136.083.197.083.233c0 .039 0 .093.024.137a.134.134 0 0 0 .114.067.131.131 0 0 0 .113-.065C.36.329.36.271.36.233c0-.036 0-.09-.022-.134A.129.129 0 0 0 .222.025z"/></symbol><symbol id="c"><path d="M.078.344V.076C.078.031.067.031 0 .031V0l.113.003L.225 0v.031c-.067 0-.078 0-.078.045V.26c0 .104.071.16.135.16C.345.42.356.366.356.309V.076C.356.031.345.031.278.031V0l.113.003L.503 0v.031c-.067 0-.078 0-.078.045V.26c0 .104.071.16.135.16C.623.42.634.366.634.309V.076C.634.031.623.031.556.031V0l.113.003L.781 0v.031c-.052 0-.077 0-.078.03v.191c0 .086 0 .117-.031.153C.658.422.625.442.567.442A.158.158 0 0 1 .422.344C.408.431.334.442.289.442.216.442.169.399.141.337v.105L0 .431V.4C.07.4.078.393.078.344z"/></symbol><use xlink:href="#a" transform="matrix(9.9626 0 0 -9.9626 18.53 13.184)"/><use xlink:href="#b" transform="matrix(9.9626 0 0 -9.9626 25.953 13.294)"/><use xlink:href="#c" transform="matrix(9.9626 0 0 -9.9626 30.974 13.184)"/><symbol id="d"><path d="M.537.182C.537.19.528.19.525.19.52.19.48.186.444.141a.19.19 0 0 0-.156-.08C.182.061.093.14.093.288c0 .074.026.189.103.283a.253.253 0 0 0 .206.094C.453.665.471.646.471.612.471.574.429.505.422.493.418.487.416.483.416.479c0-.008.008-.008.012-.008.019 0 .056.019.073.04a.383.383 0 0 1 .063.146c0 .069-.067.069-.091.069a.482.482 0 0 1-.336-.15A.514.514 0 0 1 0 .243C0 .097.086 0 .217 0c.175 0 .32.159.32.182z"/></symbol><use xlink:href="#d" transform="matrix(6.9738 0 0 -6.9738 39.195 14.84)"/><symbol id="e"><path d="M.232.01c0 .003 0 .005-.017.022C.09.158.058.347.058.5c0 .174.038.348.161.473.013.012.013.014.013.017 0 .007-.004.01-.01.01-.01 0-.1-.068-.159-.195A.727.727 0 0 1 0 .5C0 .422.011.301.066.188A.432.432 0 0 1 .222 0c.006 0 .01.003.01.01z"/></symbol><use xlink:href="#e" transform="matrix(9.9626 0 0 -9.9626 45.115 15.675)"/><symbol id="f"><path d="M.144.115C.104.048.065.034.021.031.009.03 0 .03 0 .011 0 .005.005 0 .013 0l.086.003.1-.003c.006 0 .019 0 .019.019C.218.03.209.031.202.031.179.033.155.041.155.066c0 .012.006.023.014.037l.076.128h.251L.512.064C.512.034.46.031.44.031c-.014 0-.024 0-.024-.02C.416 0 .428 0 .43 0l.125.003L.668 0c.006 0 .018 0 .018.02 0 .011-.01.011-.023.011-.062 0-.062.007-.065.036L.537.692C.535.712.535.716.518.716.502.716.498.709.492.699L.144.115m.12.147.197.33.032-.33H.264z"/></symbol><symbol id="g"><path d="M.117.194C.117.26.092.299.053.299A.051.051 0 0 1 0 .246C0 .219.02.193.053.193c.012 0 .025.004.035.013l.005.003C.094.209.095.208.095.194A.242.242 0 0 0 .027.027C.016.016.016.014.016.011.016.004.021 0 .026 0c.011 0 .091.077.091.194z"/></symbol><use xlink:href="#f" transform="matrix(9.9626 0 0 -9.9626 48.352 13.184)"/><use xlink:href="#g" transform="matrix(9.9626 0 0 -9.9626 56.332 15.107)"/><use xlink:href="#f" transform="matrix(9.9626 0 0 -9.9626 60.237 13.184)"/><symbol id="h"><path d="M.232.5a.729.729 0 0 1-.066.312A.432.432 0 0 1 .01 1C.004 1 0 .996 0 .99 0 .987 0 .985.019.967.117.868.174.709.174.5.174.329.137.153.013.027 0 .015 0 .013 0 .01 0 .004.004 0 .01 0c.01 0 .1.068.159.195C.22.305.232.416.232.5z"/></symbol><use xlink:href="#h" transform="matrix(9.9626 0 0 -9.9626 67.943 15.675)"/><symbol id="i"><path d="M.265.325h.097C.437.325.445.309.445.28c0-.007 0-.019-.007-.049A.036.036 0 0 1 .435.22c0-.008.006-.012.012-.012.01 0 .01.003.015.021l.055.217A.051.051 0 0 1 .52.462C.52.464.518.473.508.473S.497.468.493.452C.472.374.449.356.364.356H.273L.337.61c.009.035.01.039.054.039h.132c.123 0 .146-.033.146-.11 0-.023 0-.027-.003-.054L.664.467c0-.005.003-.012.012-.012.011 0 .012.006.014.025l.02.173C.713.68.708.68.683.68h-.49c-.02 0-.03 0-.03-.02 0-.011.009-.011.028-.011.037 0 .065 0 .065-.018 0-.004 0-.006-.005-.024L.119.078C.109.039.107.031.028.031.011.031 0 .031 0 .012 0 0 .012 0 .015 0l.132.003L.296 0c.009 0 .021 0 .021.019 0 .008-.006.01-.006.011L.283.031c-.022 0-.027 0-.052.002C.202.036.199.04.199.053c0 .002 0 .008.004.023l.062.249z"/></symbol><use xlink:href="#i" transform="matrix(9.9626 0 0 -9.9626 273.454 13.184)"/><use xlink:href="#e" transform="matrix(9.9626 0 0 -9.9626 281.851 15.675)"/><use xlink:href="#f" transform="matrix(9.9626 0 0 -9.9626 285.088 13.184)"/><use xlink:href="#h" transform="matrix(9.9626 0 0 -9.9626 292.779 15.675)"/><symbol id="j"><path d="M.144.442.004.431V.4C.069.4.078.394.078.345V.076C.078.031.067.031 0 .031V0l.11.003C.145.003.18.001.214 0v.031c-.066 0-.07.005-.07.044v.367m.004.174a.052.052 0 0 1-.053.053.054.054 0 0 1-.053-.053c0-.027.022-.053.053-.053.028 0 .053.021.053.053z"/></symbol><symbol id="k"><path d="M.346.066V0l.147.011v.031c-.07 0-.078.007-.078.056v.607L.271.694V.663c.07 0 .078-.007.078-.056V.391a.16.16 0 0 1-.126.062A.226.226 0 0 1 0 .226C0 .099.098 0 .212 0c.064 0 .109.034.134.066m0 .268V.129c0-.018 0-.02-.011-.037a.14.14 0 0 0-.118-.07C.172.022.136.048.112.086a.269.269 0 0 0-.029.139c0 .037.002.097.031.142a.137.137 0 0 0 .113.064.13.13 0 0 0 .108-.06C.346.354.346.352.346.334z"/></symbol><use xlink:href="#j" transform="matrix(9.9626 0 0 -9.9626 104.369 48.38)" fill="#d65c5c"/><use xlink:href="#k" transform="matrix(9.9626 0 0 -9.9626 107.138 48.49)" fill="#d65c5c"/><symbol id="l"><path d="M.149.12C.114.066.082.04.023.036.013.035 0 .035 0 .015 0 .004.009 0 .014 0 .04 0 .073.004.1.004.132.004.173 0 .203 0c.005 0 .02 0 .02.022C.223.035.21.036.206.036.198.037.162.039.162.066c0 .012.01.029.015.038l.08.124h.286L.567.062C.563.052.557.036.498.036c-.012 0-.026 0-.026-.022C.472.01.475 0 .488 0l.129.004.059-.001L.733 0c.013 0 .02.008.02.021 0 .015-.012.015-.028.015-.058 0-.06.008-.063.032L.574.685C.571.706.569.713.55.713S.525.704.516.69L.149.12m.132.144.21.327.047-.327H.281z"/></symbol><use xlink:href="#l" transform="matrix(6.9738 0 0 -6.9738 112.74 49.874)" fill="#d65c5c"/><symbol id="m"><path d="M.321.067A.09.09 0 0 1 .41 0c.035 0 .058.023.074.055.017.036.03.097.03.099 0 .01-.009.01-.012.01C.492.164.491.16.488.146.474.09.455.022.413.022.392.022.382.035.382.068c0 .022.012.069.02.104L.43.28l.017.068c.005.023.015.061.015.067 0 .018-.014.027-.029.027C.428.442.402.441.394.407A16.35 16.35 0 0 1 .319.106C.318.102.278.022.205.022.153.022.143.067.143.104c0 .056.028.135.054.204a.16.16 0 0 1 .017.063.08.08 0 0 1-.082.082C.037.453 0 .308 0 .299c0-.01.01-.01.012-.01.01 0 .011.002.016.018.025.087.063.124.101.124C.138.431.154.43.154.398A.205.205 0 0 0 .137.33.684.684 0 0 1 .079.12C.079.025.148 0 .202 0c.066 0 .102.045.119.067z"/></symbol><use xlink:href="#m" transform="matrix(9.9626 0 0 -9.9626 164.49 48.49)" fill="#d65c5c"/><use xlink:href="#l" transform="matrix(6.9738 0 0 -6.9738 170.304 49.874)" fill="#d65c5c"/><symbol id="n"><path d="M.106.378a.053.053 0 0 1-.053.053A.053.053 0 0 1 0 .378C0 .349.024.325.053.325c.029 0 .053.024.053.053m0-.325a.053.053 0 0 1-.053.053A.053.053 0 0 1 0 .053C0 .024.024 0 .053 0c.029 0 .053.024.053.053z"/></symbol><symbol id="o"><path d="M.631.194c.015 0 .034 0 .034.02s-.019.02-.033.02H.033C.019.234 0 .234 0 .214s.019-.02.034-.02h.597M.632 0c.014 0 .033 0 .033.02S.646.04.631.04H.034C.019.04 0 .04 0 .02S.019 0 .033 0h.599z"/></symbol><use xlink:href="#n" transform="matrix(9.9626 0 0 -9.9626 180.019 48.38)" fill="#d65c5c"/><use xlink:href="#o" transform="matrix(9.9626 0 0 -9.9626 182.48 47.055)" fill="#d65c5c"/><symbol id="p"><path d="m.388.875.003.014c0 .001 0 .01-.012.01-.01 0-.011-.003-.015-.02L.306.648C.147.643 0 .51 0 .374 0 .279.07.2.192.193L.169.099.147.011C.147.001.154 0 .159 0s.007.001.01.004a.247.247 0 0 1 .011.04l.038.149c.161.005.306.14.306.274 0 .079-.053.171-.192.181l.056.227M.197.215C.137.218.065.253.065.353c0 .12.086.26.235.273L.197.215m.129.411C.402.622.459.576.459.488.459.37.373.227.223.215l.103.411z"/></symbol><use xlink:href="#p" transform="matrix(9.9626 0 0 -9.9626 192.934 50.422)" fill="#d65c5c"/><use xlink:href="#l" transform="matrix(6.9738 0 0 -6.9738 198.78 49.874)" fill="#d65c5c"/><use xlink:href="#e" transform="matrix(9.9626 0 0 -9.9626 205.858 50.87)" fill="#d65c5c"/><use xlink:href="#j" transform="matrix(9.9626 0 0 -9.9626 209.066 48.38)" fill="#d65c5c"/><use xlink:href="#k" transform="matrix(9.9626 0 0 -9.9626 211.836 48.49)" fill="#d65c5c"/><use xlink:href="#l" transform="matrix(6.9738 0 0 -6.9738 217.446 49.874)" fill="#d65c5c"/><use xlink:href="#h" transform="matrix(9.9626 0 0 -9.9626 224.106 50.87)" fill="#d65c5c"/><symbol id="q"><path d="M.314.605H.4c.02 0 .03 0 .03.02C.43.636.42.636.403.636H.32L.341.75a.953.953 0 0 0 .024.104c.009.019.026.034.047.034.004 0 .03 0 .049-.018A.055.055 0 0 1 .407.816c0-.023.018-.035.037-.035.026 0 .055.022.055.06C.499.887.453.91.412.91.378.91.315.892.285.793.279.772.276.762.252.636H.183c-.019 0-.03 0-.03-.019 0-.012.009-.012.028-.012h.066L.172.21C.154.113.137.022.085.022c-.004 0-.029 0-.048.018a.054.054 0 0 1 .055.054c0 .023-.018.035-.037.035C.029.129 0 .107 0 .069 0 .024.044 0 .085 0 .14 0 .18.059.198.097a.894.894 0 0 1 .056.191l.06.317z"/></symbol><use xlink:href="#q" transform="matrix(9.9626 0 0 -9.9626 108.989 85.617)" fill="#d65c5c"/><use xlink:href="#p" transform="matrix(9.9626 0 0 -9.9626 151.817 85.617)" fill="#d65c5c"/><symbol id="r"><path d="M.118.078C.109.044.107.036.03.036c-.017 0-.03 0-.03-.021C0 0 .012 0 .03 0h.387c.168 0 .297.115.297.214 0 .071-.065.132-.171.143.121.022.222.098.222.184 0 .076-.077.142-.207.142H.194c-.019 0-.032 0-.032-.022 0-.014.012-.014.032-.014.001 0 .02 0 .038-.002C.253.643.255.641.255.631c0-.002 0-.007-.004-.022L.118.078m.16.291.061.244C.347.644.348.647.39.647h.152C.644.647.667.58.667.542.667.461.576.369.442.369H.278M.23.036c-.031 0-.032.001-.032.01 0 .001 0 .006.004.021l.069.274h.212c.094 0 .13-.062.13-.12C.613.122.512.036.391.036H.23z"/></symbol><use xlink:href="#r" transform="matrix(6.9738 0 0 -6.9738 157.767 85.069)" fill="#d65c5c"/><use xlink:href="#e" transform="matrix(9.9626 0 0 -9.9626 165.11 86.066)" fill="#d65c5c"/><use xlink:href="#q" transform="matrix(9.9626 0 0 -9.9626 168.525 85.617)" fill="#d65c5c"/><use xlink:href="#h" transform="matrix(9.9626 0 0 -9.9626 174.515 86.066)" fill="#d65c5c"/><use xlink:href="#o" transform="matrix(9.9626 0 0 -9.9626 181.13 82.25)" fill="#d65c5c"/><use xlink:href="#e" transform="matrix(9.9626 0 0 -9.9626 192.069 86.066)" fill="#d65c5c"/><use xlink:href="#i" transform="matrix(9.9626 0 0 -9.9626 195.358 83.575)" fill="#d65c5c"/><use xlink:href="#e" transform="matrix(9.9626 0 0 -9.9626 203.755 86.066)" fill="#d65c5c"/><use xlink:href="#q" transform="matrix(9.9626 0 0 -9.9626 207.172 85.617)" fill="#d65c5c"/><use xlink:href="#h" transform="matrix(9.9626 0 0 -9.9626 213.162 86.066)" fill="#d65c5c"/><use xlink:href="#h" transform="matrix(9.9626 0 0 -9.9626 217.027 86.066)" fill="#d65c5c"/><use xlink:href="#e" transform="matrix(9.9626 0 0 -9.9626 221.311 86.066)" fill="#d65c5c"/><use xlink:href="#m" transform="matrix(9.9626 0 0 -9.9626 224.506 83.685)" fill="#d65c5c"/><use xlink:href="#l" transform="matrix(6.9738 0 0 -6.9738 230.318 85.069)" fill="#d65c5c"/><use xlink:href="#h" transform="matrix(9.9626 0 0 -9.9626 236.978 86.066)" fill="#d65c5c"/><use xlink:href="#a" transform="matrix(9.9626 0 0 -9.9626 18.239 118.77)"/><use xlink:href="#b" transform="matrix(9.9626 0 0 -9.9626 25.66 118.88)"/><use xlink:href="#c" transform="matrix(9.9626 0 0 -9.9626 30.682 118.77)"/><use xlink:href="#d" transform="matrix(6.9738 0 0 -6.9738 38.903 120.424)"/><use xlink:href="#e" transform="matrix(9.9626 0 0 -9.9626 44.823 121.26)"/><symbol id="s"><path d="M.118.078C.108.039.106.031.027.031.01.031 0 .031 0 .011 0 0 .009 0 .027 0h.357C.542 0 .66.118.66.216c0 .072-.058.13-.155.141.104.019.209.093.209.188 0 .074-.066.138-.186.138H.192c-.019 0-.029 0-.029-.02 0-.011.009-.011.028-.011.002 0 .021 0 .038-.002C.247.648.256.647.256.634L.252.615.118.078m.151.288.062.248C.34.649.342.652.385.652h.129C.602.652.623.593.623.549.623.461.537.366.415.366H.269M.224.031a.11.11 0 0 0-.022.001C.192.033.189.034.189.042c0 .003 0 .005.005.023l.069.279h.189C.548.344.567.27.567.227A.205.205 0 0 0 .36.031H.224z"/></symbol><use xlink:href="#f" transform="matrix(9.9626 0 0 -9.9626 48.06 118.77)"/><use xlink:href="#g" transform="matrix(9.9626 0 0 -9.9626 56.04 120.693)"/><use xlink:href="#s" transform="matrix(9.9626 0 0 -9.9626 60.015 118.77)"/><use xlink:href="#h" transform="matrix(9.9626 0 0 -9.9626 68.236 121.26)"/><use xlink:href="#i" transform="matrix(9.9626 0 0 -9.9626 273.162 118.77)"/><use xlink:href="#e" transform="matrix(9.9626 0 0 -9.9626 281.56 121.26)"/><use xlink:href="#s" transform="matrix(9.9626 0 0 -9.9626 284.865 118.77)"/><use xlink:href="#h" transform="matrix(9.9626 0 0 -9.9626 293.072 121.26)"/><path stroke-width=".398" stroke-miterlimit="10" fill="none" stroke="#000" d="M75.744 10.693h192.443"/><path stroke-width=".398" stroke-linecap="round" stroke-linejoin="round" fill="none" stroke="#000" d="M266.314 8.302c.378 1.434 1.222 2.112 2.072 2.39-.85.28-1.694.957-2.072 2.392"/><symbol id="t"><path d="M.422.885C.422.898.41.898.405.898.39.898.389.893.385.876L.328.647C.151.639 0 .512 0 .378 0 .265.103.197.214.193L.191.099A1.701 1.701 0 0 1 .17.012C.17 0 .183 0 .186 0c.015 0 .016.003.021.024l.042.168C.42.199.577.325.577.461c0 .105-.092.18-.214.185l.059.239M.221.221C.144.225.073.267.073.361c0 .1.076.241.247.257L.221.221m.134.397C.432.615.504.573.504.478A.266.266 0 0 0 .256.221l.099.397z"/></symbol><use xlink:href="#t" transform="matrix(6.9738 0 0 -6.9738 167.428 8.413)"/><symbol id="u"><path d="M.623.689C.619.71.615.716.593.716.569.716.563.708.553.693L.161.125C.119.064.084.048.019.045 0 .044 0 .018 0 .017 0 .003.012 0 .016 0l.045.003.051.001.055-.001L.224 0c.007 0 .024 0 .024.028 0 .016-.015.017-.019.017-.008 0-.047.002-.047.026C.182.083.194.1.201.11l.073.107C.279.223.28.224.299.224h.303A.299.299 0 0 1 .608.195C.611.177.631.077.631.067.631.045.568.045.563.045c-.015 0-.031 0-.031-.028C.532.007.539 0 .55 0l.067.003.071.001.064-.001L.815 0c.017 0 .024.012.024.028 0 .017-.016.017-.03.017-.066 0-.067.007-.071.029L.623.689M.533.593.594.269H.31l.223.324z"/></symbol><use xlink:href="#u" transform="matrix(4.9813 0 0 -4.9813 172.248 7.992)"/><path stroke-width=".398" stroke-miterlimit="10" fill="none" stroke="#000" d="M44.726 19.523v87.527"/><path stroke-width=".398" stroke-linecap="round" stroke-linejoin="round" fill="none" stroke="#000" d="M47.117 105.177c-1.434.379-2.112 1.223-2.39 2.073-.28-.85-.957-1.694-2.391-2.073"/><symbol id="v"><path d="M.627.602c0 .034.002.045.079.045H.73v.036A4.593 4.593 0 0 0 .58.679L.429.683V.647h.024C.53.647.532.637.532.602V.373H.198v.229c0 .034.002.045.079.045h.024v.036a4.593 4.593 0 0 0-.15-.004L0 .683V.647h.024c.077 0 .079-.01.079-.045V.081C.103.047.101.036.024.036H0V0l.15.004L.301 0v.036H.277C.2.036.198.046.198.081v.256h.334V.081C.532.047.53.036.453.036H.429V0l.15.004L.73 0v.036H.706c-.077 0-.079.01-.079.045v.521z"/></symbol><symbol id="w"><path d="M.49.223a.24.24 0 0 1-.245.233A.24.24 0 0 1 0 .223C0 .099.11 0 .245 0S.49.099.49.223M.245.032a.147.147 0 0 0-.124.061.25.25 0 0 0-.03.139c0 .043.001.102.036.145a.155.155 0 0 0 .118.051.148.148 0 0 0 .123-.059C.396.33.399.28.399.232.399.184.396.131.367.09A.147.147 0 0 0 .245.032z"/></symbol><symbol id="x"><path d="M.768.303c0 .087-.043.138-.15.138a.177.177 0 0 1-.16-.093C.438.419.384.441.311.441A.179.179 0 0 1 .148.344H.147v.097L0 .43V.394C.067.394.075.387.075.338V.079C.075.036.065.036 0 .036V0c.002 0 .072.004.114.004C.151.004.22.001.229 0v.036c-.065 0-.075 0-.075.043v.18c0 .105.083.154.149.154.07 0 .079-.055.079-.106V.079C.382.036.372.036.307.036V0c.002 0 .072.004.114.004C.458.004.527.001.536 0v.036c-.065 0-.075 0-.075.043v.18c0 .105.083.154.149.154.07 0 .079-.055.079-.106V.079C.689.036.679.036.614.036V0c.002 0 .072.004.114.004C.765.004.834.001.843 0v.036c-.065 0-.075 0-.075.043v.224z"/></symbol><use xlink:href="#v" transform="matrix(6.9738 0 0 -6.9738 2.536 65.229)"/><use xlink:href="#w" transform="matrix(6.9738 0 0 -6.9738 8.296 65.299)"/><use xlink:href="#x" transform="matrix(6.9738 0 0 -6.9738 12.369 65.229)"/><symbol id="y"><path d="M.611.184c0 .009-.01.011-.017.011C.562.195.536.173.514.15A.262.262 0 0 0 .328.069C.196.069.101.163.101.305c0 .088.06.355.341.355C.489.66.521.649.521.605.521.57.479.507.476.503.464.486.464.484.464.479c0-.011.012-.011.017-.011.03 0 .065.027.074.038.019.022.028.04.044.071a.166.166 0 0 1 .023.075c0 .077-.08.077-.107.077A.544.544 0 0 1 .158.592.47.47 0 0 1 0 .258C0 .102.107 0 .255 0A.45.45 0 0 1 .49.073C.53.097.611.16.611.184z"/></symbol><use xlink:href="#y" transform="matrix(4.9813 0 0 -4.9813 18.94 66.35)"/><symbol id="z"><path d="M.24.999A.6.6 0 0 1 0 .5.6.6 0 0 1 .24 0c.008 0 .02 0 .02.012C.26.018.257.02.25.027.117.147.068.317.068.499c0 .27.103.402.185.476C.257.979.26.982.26.987.26.999.248.999.24.999z"/></symbol><use xlink:href="#z" transform="matrix(6.9738 0 0 -6.9738 23.931 66.965)"/><symbol id="A"><path d="M.099.209A.231.231 0 0 0 .021.026C.017.022.014.019.014.014.014.007.022 0 .028 0c.014 0 .099.08.099.199 0 .062-.024.109-.07.109A.056.056 0 0 1 0 .251C0 .219.023.193.058.193c.024 0 .04.016.041.016z"/></symbol><symbol id="B"><path d="M.334.599h.098c.02 0 .033 0 .033.022 0 .014-.013.014-.031.014H.341C.364.762.372.808.38.837.385.859.407.88.431.88.432.88.459.88.478.868A.06.06 0 0 1 .434.813c0-.022.017-.037.04-.037a.06.06 0 0 1 .057.061c0 .046-.049.071-.1.071a.139.139 0 0 1-.12-.075C.291.796.283.751.262.635H.183C.163.635.15.635.15.613.15.599.163.599.181.599h.074A18.16 18.16 0 0 0 .167.126C.162.104.145.028.097.028c-.001 0-.025 0-.044.012a.06.06 0 0 1 .044.055c0 .022-.017.037-.04.037A.06.06 0 0 1 0 .071C0 .026.047 0 .097 0c.064 0 .108.066.12.088A.85.85 0 0 1 .278.29l.056.309z"/></symbol><use xlink:href="#l" transform="matrix(6.9738 0 0 -6.9738 26.64 65.229)"/><use xlink:href="#A" transform="matrix(6.9738 0 0 -6.9738 33.014 66.575)"/><use xlink:href="#B" transform="matrix(6.9738 0 0 -6.9738 35.106 66.652)"/><symbol id="C"><path d="M.019.999C.012.999 0 .999 0 .987 0 .982.003.979.009.972.095.893.191.758.191.5.191.291.126.133.018.035.001.018 0 .017 0 .012 0 .007.003 0 .013 0 .025 0 .12.066.186.191a.667.667 0 0 1 .073.308.6.6 0 0 1-.24.5z"/></symbol><use xlink:href="#C" transform="matrix(6.9738 0 0 -6.9738 39.761 66.965)"/><path stroke-width=".398" stroke-miterlimit="10" fill="none" stroke="#000" d="M76.036 116.28h191.858"/><path stroke-width=".398" stroke-linecap="round" stroke-linejoin="round" fill="none" stroke="#000" d="M266.022 113.888c.378 1.435 1.222 2.112 2.072 2.391-.85.28-1.694.957-2.072 2.391"/><use xlink:href="#t" transform="matrix(6.9738 0 0 -6.9738 167.31 124.892)"/><symbol id="D"><path d="M.127.083C.119.053.118.045.042.045.016.045 0 .045 0 .017 0 0 .016 0 .033 0h.435c.18 0 .326.112.326.212C.794.274.736.341.6.358c.099.013.24.079.24.179C.84.621.741.683.605.683h-.41C.176.683.16.683.16.655.16.638.173.638.197.638c.01 0 .043 0 .064-.006 0-.012 0-.014-.003-.025L.127.083m.169.289.058.233c.008.031.008.033.05.033h.183C.686.638.733.587.733.534.733.453.625.372.485.372H.296M.248.045c-.008 0-.022 0-.032.002l.003.018.068.273h.244C.633.338.684.279.684.216.684.119.565.045.441.045H.248z"/></symbol><use xlink:href="#D" transform="matrix(4.9813 0 0 -4.9813 172.214 124.471)"/><path stroke-width=".398" stroke-miterlimit="10" fill="none" stroke="#000" d="M284.584 19.523v87.527"/><path stroke-width=".398" stroke-linecap="round" stroke-linejoin="round" fill="none" stroke="#000" d="M286.975 105.177c-1.435.379-2.112 1.223-2.39 2.073-.28-.85-.957-1.694-2.392-2.073"/><symbol id="E"><path d="M.273.322H.38C.456.322.469.31.469.277c0-.015 0-.017-.007-.045L.459.22c0-.01.007-.015.017-.015.013 0 .014.005.019.023L.549.44a.177.177 0 0 1 .004.02c0 .01-.007.015-.017.015C.522.475.521.469.516.451.496.373.467.358.382.358h-.1l.063.251C.353.64.354.643.396.643h.153C.682.643.707.611.707.528.707.495.703.474.703.466S.706.449.72.449c.015 0 .016.009.018.026l.018.174c.003.03-.004.03-.029.03H.193c-.019 0-.032 0-.032-.022 0-.014.012-.014.032-.014.001 0 .02 0 .038-.002C.252.639.254.637.254.627.254.62.251.61.25.605L.119.082C.109.043.108.036.03.036c-.017 0-.03 0-.03-.021C0 .005.007 0 .016 0l.132.004.077-.001L.304 0c.007 0 .022 0 .022.022 0 .014-.012.014-.035.014-.002 0-.027 0-.052.002C.218.04.208.041.208.055c0 .004 0 .007.003.018l.062.249z"/></symbol><use xlink:href="#E" transform="matrix(6.9738 0 0 -6.9738 287.411 65.229)"/><use xlink:href="#z" transform="matrix(6.9738 0 0 -6.9738 293.857 66.965)"/><use xlink:href="#B" transform="matrix(6.9738 0 0 -6.9738 296.677 66.652)"/><use xlink:href="#C" transform="matrix(6.9738 0 0 -6.9738 301.33 66.965)"/><path stroke-width=".398" stroke-miterlimit="10" fill="none" stroke="#d65c5c" d="M111.437 53.722v18.686"/><path stroke-width=".398" stroke-linecap="round" stroke-linejoin="round" fill="none" stroke="#d65c5c" d="M113.828 70.535c-1.434.379-2.112 1.223-2.39 2.073-.28-.85-.957-1.694-2.392-2.073"/><path stroke-width=".398" stroke-miterlimit="10" fill="none" stroke="#d65c5c" d="M123.327 45.888h35.986"/><path stroke-width=".398" stroke-linecap="round" stroke-linejoin="round" fill="none" stroke="#d65c5c" d="M157.44 43.497c.378 1.435 1.222 2.112 2.072 2.391-.85.28-1.694.957-2.072 2.391"/><path stroke-width=".398" stroke-miterlimit="10" fill="none" stroke="#d65c5c" d="M195.81 54.719v17.136"/><path stroke-width=".398" stroke-linecap="round" stroke-linejoin="round" fill="none" stroke="#d65c5c" d="M198.2 69.982c-1.434.378-2.111 1.222-2.39 2.072-.28-.85-.957-1.694-2.391-2.072"/><path stroke-width=".398" stroke-miterlimit="10" fill="none" stroke="#d65c5c" d="M118.906 81.084h27.534"/><path stroke-width=".398" stroke-linecap="round" stroke-linejoin="round" fill="none" stroke="#d65c5c" d="M144.567 78.693c.379 1.434 1.222 2.112 2.072 2.39-.85.28-1.693.957-2.072 2.392"/></svg>