<svg xmlns="http://www.w3.org/2000/svg" xmlns:xlink="http://www.w3.org/1999/xlink" width="475.293" height="171.36" viewBox="0 0 356.47 128.52"><symbol id="a"><path d="M.58.605c0 .036.002.047.079.047h.024v.031C.648.68.574.68.536.68.498.68.423.68.388.683V.652h.024C.489.652.491.641.491.605V.371H.192v.234c0 .036.002.047.079.047h.024v.031C.26.68.186.68.148.68.11.68.035.68 0 .683V.652h.024C.101.652.103.641.103.605V.078C.103.042.101.031.024.031H0V0c.035.003.109.003.147.003C.185.003.26.003.295 0v.031H.271C.194.031.192.042.192.078V.34h.299V.078C.491.042.489.031.412.031H.388V0c.035.003.109.003.147.003.038 0 .113 0 .148-.003v.031H.659C.582.031.58.042.58.078v.527z"/></symbol><symbol id="b"><path d="M.443.225c0 .128-.1.234-.221.234C.097.459 0 .35 0 .225 0 .096.104 0 .221 0c.121 0 .222.098.222.225m-.221-.2a.13.13 0 0 0-.114.067C.083.136.083.197.083.233c0 .039 0 .093.024.137a.134.134 0 0 0 .114.067.131.131 0 0 0 .113-.065C.36.329.36.271.36.233c0-.036 0-.09-.022-.134A.129.129 0 0 0 .222.025z"/></symbol><symbol id="c"><path d="M.078.344V.076C.078.031.067.031 0 .031V0l.113.003L.225 0v.031c-.067 0-.078 0-.078.045V.26c0 .104.071.16.135.16C.345.42.356.366.356.309V.076C.356.031.345.031.278.031V0l.113.003L.503 0v.031c-.067 0-.078 0-.078.045V.26c0 .104.071.16.135.16C.623.42.634.366.634.309V.076C.634.031.623.031.556.031V0l.113.003L.781 0v.031c-.052 0-.077 0-.078.03v.191c0 .086 0 .117-.031.153C.658.422.625.442.567.442A.158.158 0 0 1 .422.344C.408.431.334.442.289.442.216.442.169.399.141.337v.105L0 .431V.4C.07.4.078.393.078.344z"/></symbol><use xlink:href="#a" transform="matrix(9.9626 0 0 -9.9626 18.054 13.959)"/><use xlink:href="#b" transform="matrix(9.9626 0 0 -9.9626 25.476 14.069)"/><use xlink:href="#c" transform="matrix(9.9626 0 0 -9.9626 30.497 13.959)"/><symbol id="d"><path d="M.537.182C.537.19.528.19.525.19.52.19.48.186.444.141a.19.19 0 0 0-.156-.08C.182.061.093.14.093.288c0 .074.026.189.103.283a.253.253 0 0 0 .206.094C.453.665.471.646.471.612.471.574.429.505.422.493.418.487.416.483.416.479c0-.008.008-.008.012-.008.019 0 .056.019.073.04a.383.383 0 0 1 .063.146c0 .069-.067.069-.091.069a.482.482 0 0 1-.336-.15A.514.514 0 0 1 0 .243C0 .097.086 0 .217 0c.175 0 .32.159.32.182z"/></symbol><use xlink:href="#d" transform="matrix(6.9738 0 0 -6.9738 38.718 15.614)"/><symbol id="e"><path d="M.232.01c0 .003 0 .005-.017.022C.09.158.058.347.058.5c0 .174.038.348.161.473.013.012.013.014.013.017 0 .007-.004.01-.01.01-.01 0-.1-.068-.159-.195A.727.727 0 0 1 0 .5C0 .422.011.301.066.188A.432.432 0 0 1 .222 0c.006 0 .01.003.01.01z"/></symbol><use xlink:href="#e" transform="matrix(9.9626 0 0 -9.9626 44.638 16.45)"/><symbol id="f"><path d="M.593.717a.01.01 0 0 1-.011.01C.577.727.576.726.564.712L.516.655C.49.702.438.727.373.727.246.727.126.612.126.491.126.41.179.364.23.349L.337.321C.374.312.429.297.429.215c0-.09-.082-.184-.18-.184-.064 0-.175.022-.175.146 0 .024.005.048.006.054l.002.007c0 .01-.007.011-.012.011S.063.248.06.245A5.405 5.405 0 0 1 0 .01C0 .004.005 0 .011 0c.005 0 .006.001.018.015l.049.057C.121.014.189 0 .247 0c.136 0 .254.133.254.257a.15.15 0 0 1-.049.117C.429.397.414.401.325.424L.258.442a.093.093 0 0 0-.061.091c0 .081.08.166.175.166.083 0 .144-.043.144-.155C.516.512.512.494.512.488c0-.001 0-.01.012-.01.01 0 .011.003.015.02l.054.219z"/></symbol><symbol id="g"><path d="M.117.194C.117.26.092.299.053.299A.051.051 0 0 1 0 .246C0 .219.02.193.053.193c.012 0 .025.004.035.013l.005.003C.094.209.095.208.095.194A.242.242 0 0 0 .027.027C.016.016.016.014.016.011.016.004.021 0 .026 0c.011 0 .091.077.091.194z"/></symbol><symbol id="h"><path d="M.144.115C.104.048.065.034.021.031.009.03 0 .03 0 .011 0 .005.005 0 .013 0l.086.003.1-.003c.006 0 .019 0 .019.019C.218.03.209.031.202.031.179.033.155.041.155.066c0 .012.006.023.014.037l.076.128h.251L.512.064C.512.034.46.031.44.031c-.014 0-.024 0-.024-.02C.416 0 .428 0 .43 0l.125.003L.668 0c.006 0 .018 0 .018.02 0 .011-.01.011-.023.011-.062 0-.062.007-.065.036L.537.692C.535.712.535.716.518.716.502.716.498.709.492.699L.144.115m.12.147.197.33.032-.33H.264z"/></symbol><use xlink:href="#f" transform="matrix(9.9626 0 0 -9.9626 48.045 14.178)"/><use xlink:href="#g" transform="matrix(9.9626 0 0 -9.9626 54.51 15.882)"/><use xlink:href="#h" transform="matrix(9.9626 0 0 -9.9626 58.416 13.959)"/><symbol id="i"><path d="M.232.5a.729.729 0 0 1-.066.312A.432.432 0 0 1 .01 1C.004 1 0 .996 0 .99 0 .987 0 .985.019.967.117.868.174.709.174.5.174.329.137.153.013.027 0 .015 0 .013 0 .01 0 .004.004 0 .01 0c.01 0 .1.068.159.195C.22.305.232.416.232.5z"/></symbol><use xlink:href="#i" transform="matrix(9.9626 0 0 -9.9626 66.124 16.45)"/><symbol id="j"><path d="M.265.325h.097C.437.325.445.309.445.28c0-.007 0-.019-.007-.049A.036.036 0 0 1 .435.22c0-.008.006-.012.012-.012.01 0 .01.003.015.021l.055.217A.051.051 0 0 1 .52.462C.52.464.518.473.508.473S.497.468.493.452C.472.374.449.356.364.356H.273L.337.61c.009.035.01.039.054.039h.132c.123 0 .146-.033.146-.11 0-.023 0-.027-.003-.054L.664.467c0-.005.003-.012.012-.012.011 0 .012.006.014.025l.02.173C.713.68.708.68.683.68h-.49c-.02 0-.03 0-.03-.02 0-.011.009-.011.028-.011.037 0 .065 0 .065-.018 0-.004 0-.006-.005-.024L.119.078C.109.039.107.031.028.031.011.031 0 .031 0 .012 0 0 .012 0 .015 0l.132.003L.296 0c.009 0 .021 0 .021.019 0 .008-.006.01-.006.011L.283.031c-.022 0-.027 0-.052.002C.202.036.199.04.199.053c0 .002 0 .008.004.023l.062.249z"/></symbol><use xlink:href="#j" transform="matrix(9.9626 0 0 -9.9626 323.828 13.959)"/><use xlink:href="#e" transform="matrix(9.9626 0 0 -9.9626 332.225 16.45)"/><use xlink:href="#h" transform="matrix(9.9626 0 0 -9.9626 335.462 13.959)"/><use xlink:href="#i" transform="matrix(9.9626 0 0 -9.9626 343.153 16.45)"/><symbol id="k"><path d="M.456.582C.457.588.459.593.459.6.459.617.447.627.43.627.42.627.393.62.389.584a.106.106 0 0 1-.093.063C.182.647.058.507.058.363c0-.099.061-.158.133-.158.059 0 .106.047.116.058L.308.262C.287.173.275.132.275.13.271.121.237.022.131.022a.276.276 0 0 0-.08.01c.03.009.041.035.041.052C.092.1.081.119.054.119A.056.056 0 0 1 0 .061C0 .02.037 0 .133 0 .258 0 .33.078.345.138l.111.444M.326.333C.32.307.297.282.275.263A.137.137 0 0 0 .194.227c-.05 0-.065.052-.065.092 0 .048.029.166.056.217.027.049.07.089.112.089.066 0 .08-.081.08-.086L.374.524.326.333z"/></symbol><use xlink:href="#k" transform="matrix(9.9626 0 0 -9.9626 110.05 51.196)" fill="#d65c5c"/><use xlink:href="#e" transform="matrix(9.9626 0 0 -9.9626 202.99 51.645)" fill="#d65c5c"/><use xlink:href="#j" transform="matrix(9.9626 0 0 -9.9626 206.257 49.154)" fill="#d65c5c"/><use xlink:href="#e" transform="matrix(9.9626 0 0 -9.9626 214.654 51.645)" fill="#d65c5c"/><use xlink:href="#k" transform="matrix(9.9626 0 0 -9.9626 217.691 51.196)" fill="#d65c5c"/><use xlink:href="#i" transform="matrix(9.9626 0 0 -9.9626 223.22 51.645)" fill="#d65c5c"/><use xlink:href="#i" transform="matrix(9.9626 0 0 -9.9626 227.085 51.645)" fill="#d65c5c"/><use xlink:href="#e" transform="matrix(9.9626 0 0 -9.9626 231.37 51.645)" fill="#d65c5c"/><symbol id="l"><path d="M.305.313c.006.026.029.118.099.118.005 0 .029 0 .05-.013A.058.058 0 0 1 .406.364c0-.016.011-.035.038-.035.022 0 .054.018.054.058 0 .052-.059.066-.093.066C.347.453.312.4.3.377a.11.11 0 0 1-.108.076C.088.453.031.324.031.299c0-.01.01-.01.012-.01.008 0 .011.002.013.011.034.106.1.131.134.131.019 0 .054-.009.054-.067C.244.333.227.266.19.126.174.064.139.022.095.022c-.006 0-.029 0-.05.013C.07.04.092.061.092.089.092.116.07.124.055.124A.057.057 0 0 1 0 .066C0 .02.05 0 .094 0 .16 0 .196.07.199.076A.11.11 0 0 1 .307 0c.103 0 .16.129.16.154 0 .01-.009.01-.012.01C.446.164.444.16.442.153.409.046.341.022.309.022.27.022.254.054.254.088c0 .022.006.044.017.088l.034.137z"/></symbol><use xlink:href="#l" transform="matrix(9.9626 0 0 -9.9626 234.564 49.264)" fill="#d65c5c"/><use xlink:href="#i" transform="matrix(9.9626 0 0 -9.9626 240.537 51.645)" fill="#d65c5c"/><symbol id="m"><path d="M.314.605H.4c.02 0 .03 0 .03.02C.43.636.42.636.403.636H.32L.341.75a.953.953 0 0 0 .024.104c.009.019.026.034.047.034.004 0 .03 0 .049-.018A.055.055 0 0 1 .407.816c0-.023.018-.035.037-.035.026 0 .055.022.055.06C.499.887.453.91.412.91.378.91.315.892.285.793.279.772.276.762.252.636H.183c-.019 0-.03 0-.03-.019 0-.012.009-.012.028-.012h.066L.172.21C.154.113.137.022.085.022c-.004 0-.029 0-.048.018a.054.054 0 0 1 .055.054c0 .023-.018.035-.037.035C.029.129 0 .107 0 .069 0 .024.044 0 .085 0 .14 0 .18.059.198.097a.894.894 0 0 1 .056.191l.06.317z"/></symbol><use xlink:href="#m" transform="matrix(9.9626 0 0 -9.9626 102.749 86.392)" fill="#d65c5c"/><symbol id="n"><path d="M.389.194a.195.195 0 0 1-.194.194A.196.196 0 0 1 0 .194C0 .088.087 0 .195 0 .3 0 .389.087.389.194M.195.04a.154.154 0 1 0-.001.309A.154.154 0 0 0 .195.04z"/></symbol><use xlink:href="#n" transform="matrix(9.9626 0 0 -9.9626 110.933 83.792)" fill="#d65c5c"/><use xlink:href="#k" transform="matrix(9.9626 0 0 -9.9626 117.73 86.392)" fill="#d65c5c"/><use xlink:href="#j" transform="matrix(9.9626 0 0 -9.9626 155.566 84.35)" fill="#d65c5c"/><use xlink:href="#e" transform="matrix(9.9626 0 0 -9.9626 163.963 86.84)" fill="#d65c5c"/><use xlink:href="#m" transform="matrix(9.9626 0 0 -9.9626 167.38 86.392)" fill="#d65c5c"/><use xlink:href="#n" transform="matrix(9.9626 0 0 -9.9626 175.564 83.792)" fill="#d65c5c"/><use xlink:href="#k" transform="matrix(9.9626 0 0 -9.9626 182.36 86.392)" fill="#d65c5c"/><use xlink:href="#i" transform="matrix(9.9626 0 0 -9.9626 187.888 86.84)" fill="#d65c5c"/><use xlink:href="#e" transform="matrix(9.9626 0 0 -9.9626 192.172 86.84)" fill="#d65c5c"/><use xlink:href="#l" transform="matrix(9.9626 0 0 -9.9626 195.358 84.46)" fill="#d65c5c"/><symbol id="o"><path d="M.631.194c.015 0 .034 0 .034.02s-.019.02-.033.02H.033C.019.234 0 .234 0 .214s.019-.02.034-.02h.597M.632 0c.014 0 .033 0 .033.02S.646.04.631.04H.034C.019.04 0 .04 0 .02S.019 0 .033 0h.599z"/></symbol><use xlink:href="#i" transform="matrix(9.9626 0 0 -9.9626 201.33 86.84)" fill="#d65c5c"/><use xlink:href="#o" transform="matrix(9.9626 0 0 -9.9626 207.946 83.025)" fill="#d65c5c"/><use xlink:href="#e" transform="matrix(9.9626 0 0 -9.9626 218.885 86.84)" fill="#d65c5c"/><use xlink:href="#j" transform="matrix(9.9626 0 0 -9.9626 222.174 84.35)" fill="#d65c5c"/><use xlink:href="#e" transform="matrix(9.9626 0 0 -9.9626 230.571 86.84)" fill="#d65c5c"/><use xlink:href="#m" transform="matrix(9.9626 0 0 -9.9626 233.988 86.392)" fill="#d65c5c"/><use xlink:href="#i" transform="matrix(9.9626 0 0 -9.9626 239.978 86.84)" fill="#d65c5c"/><use xlink:href="#n" transform="matrix(9.9626 0 0 -9.9626 246.046 83.792)" fill="#d65c5c"/><use xlink:href="#j" transform="matrix(9.9626 0 0 -9.9626 253.072 84.35)" fill="#d65c5c"/><use xlink:href="#e" transform="matrix(9.9626 0 0 -9.9626 261.47 86.84)" fill="#d65c5c"/><use xlink:href="#k" transform="matrix(9.9626 0 0 -9.9626 264.508 86.392)" fill="#d65c5c"/><use xlink:href="#i" transform="matrix(9.9626 0 0 -9.9626 270.035 86.84)" fill="#d65c5c"/><use xlink:href="#i" transform="matrix(9.9626 0 0 -9.9626 273.9 86.84)" fill="#d65c5c"/><use xlink:href="#e" transform="matrix(9.9626 0 0 -9.9626 278.184 86.84)" fill="#d65c5c"/><use xlink:href="#l" transform="matrix(9.9626 0 0 -9.9626 281.379 84.46)" fill="#d65c5c"/><use xlink:href="#i" transform="matrix(9.9626 0 0 -9.9626 287.352 86.84)" fill="#d65c5c"/><use xlink:href="#a" transform="matrix(9.9626 0 0 -9.9626 17.762 119.545)"/><use xlink:href="#b" transform="matrix(9.9626 0 0 -9.9626 25.184 119.655)"/><use xlink:href="#c" transform="matrix(9.9626 0 0 -9.9626 30.205 119.545)"/><use xlink:href="#d" transform="matrix(6.9738 0 0 -6.9738 38.426 121.2)"/><use xlink:href="#e" transform="matrix(9.9626 0 0 -9.9626 44.346 122.036)"/><symbol id="p"><path d="M.118.078C.108.039.106.031.027.031.01.031 0 .031 0 .011 0 0 .009 0 .027 0h.357C.542 0 .66.118.66.216c0 .072-.058.13-.155.141.104.019.209.093.209.188 0 .074-.066.138-.186.138H.192c-.019 0-.029 0-.029-.02 0-.011.009-.011.028-.011.002 0 .021 0 .038-.002C.247.648.256.647.256.634L.252.615.118.078m.151.288.062.248C.34.649.342.652.385.652h.129C.602.652.623.593.623.549.623.461.537.366.415.366H.269M.224.031a.11.11 0 0 0-.022.001C.192.033.189.034.189.042c0 .003 0 .005.005.023l.069.279h.189C.548.344.567.27.567.227A.205.205 0 0 0 .36.031H.224z"/></symbol><use xlink:href="#f" transform="matrix(9.9626 0 0 -9.9626 47.753 119.764)"/><use xlink:href="#g" transform="matrix(9.9626 0 0 -9.9626 54.219 121.468)"/><use xlink:href="#p" transform="matrix(9.9626 0 0 -9.9626 58.194 119.545)"/><use xlink:href="#i" transform="matrix(9.9626 0 0 -9.9626 66.417 122.036)"/><use xlink:href="#j" transform="matrix(9.9626 0 0 -9.9626 323.536 119.545)"/><use xlink:href="#e" transform="matrix(9.9626 0 0 -9.9626 331.933 122.036)"/><use xlink:href="#p" transform="matrix(9.9626 0 0 -9.9626 335.24 119.545)"/><use xlink:href="#i" transform="matrix(9.9626 0 0 -9.9626 343.446 122.036)"/><path stroke-width=".398" stroke-miterlimit="10" fill="none" stroke="#000" d="M73.925 11.468H318.56"/><path stroke-width=".398" stroke-linecap="round" stroke-linejoin="round" fill="none" stroke="#000" d="M316.689 9.077c.378 1.434 1.222 2.112 2.072 2.39-.85.28-1.694.957-2.072 2.392"/><symbol id="q"><path d="M.497.871.5.886C.5.898.487.898.484.898.469.898.469.894.464.876L.301.224C.219.234.175.269.175.336c0 .015 0 .043.05.167C.233.525.24.542.24.559.24.611.196.645.145.645.045.645 0 .508 0 .492 0 .479.014.479.017.479c.014 0 .015.005.018.016.024.082.068.122.107.122.017 0 .025-.011.025-.035C.167.559.159.54.148.51.098.384.098.361.098.343.098.228.219.2.294.196A7.602 7.602 0 0 1 .249.013C.249 0 .261 0 .265 0c.014 0 .016.005.02.021l.043.173c.039 0 .131 0 .236.105a.34.34 0 0 1 .072.107.552.552 0 0 1 .035.161c0 .078-.047.079-.05.079C.595.646.567.619.567.593c0-.017.01-.025.014-.028a.106.106 0 0 0 .04-.083c0-.084-.115-.26-.286-.26l.162.649z"/></symbol><use xlink:href="#q" transform="matrix(6.9738 0 0 -6.9738 185.807 8.8)"/><symbol id="r"><path d="M.24.999A.6.6 0 0 1 0 .5.6.6 0 0 1 .24 0c.008 0 .02 0 .02.012C.26.018.257.02.25.027.117.147.068.317.068.499c0 .27.103.402.185.476C.257.979.26.982.26.987.26.999.248.999.24.999z"/></symbol><use xlink:href="#r" transform="matrix(6.9738 0 0 -6.9738 191.804 9.114)"/><symbol id="s"><path d="M.201.116C.191.082.158.028.107.028c-.003 0-.033 0-.054.014a.06.06 0 0 1 .044.055c0 .022-.017.037-.04.037A.06.06 0 0 1 0 .073C0 .023.056 0 .105 0c.046 0 .087.029.112.071C.241.018.296 0 .336 0c.115 0 .176.125.176.153 0 .013-.013.013-.016.013C.482.166.481.161.477.149.456.08.396.028.34.028.3.028.279.055.279.093c0 .026.024.117.052.228.02.077.065.102.098.102.002 0 .033 0 .054-.014A.059.059 0 0 1 .439.354c0-.022.017-.037.04-.037s.056.019.056.061c0 .056-.064.073-.104.073C.381.451.341.418.319.38a.128.128 0 0 1-.12.071C.087.451.023.328.023.298.023.285.037.285.04.285c.013 0 .014.004.019.017.025.078.088.121.137.121.033 0 .06-.018.06-.066 0-.02-.012-.07-.021-.104L.201.116z"/></symbol><use xlink:href="#s" transform="matrix(6.9738 0 0 -6.9738 194.45 7.448)"/><symbol id="t"><path d="M.019.999C.012.999 0 .999 0 .987 0 .982.003.979.009.972.095.893.191.758.191.5.191.291.126.133.018.035.001.018 0 .017 0 .012 0 .007.003 0 .013 0 .025 0 .12.066.186.191a.667.667 0 0 1 .073.308.6.6 0 0 1-.24.5z"/></symbol><use xlink:href="#t" transform="matrix(6.9738 0 0 -6.9738 199.128 9.114)"/><symbol id="u"><path d="M.623.689C.619.71.615.716.593.716.569.716.563.708.553.693L.161.125C.119.064.084.048.019.045 0 .044 0 .018 0 .017 0 .003.012 0 .016 0l.045.003.051.001.055-.001L.224 0c.007 0 .024 0 .024.028 0 .016-.015.017-.019.017-.008 0-.047.002-.047.026C.182.083.194.1.201.11l.073.107C.279.223.28.224.299.224h.303A.299.299 0 0 1 .608.195C.611.177.631.077.631.067.631.045.568.045.563.045c-.015 0-.031 0-.031-.028C.532.007.539 0 .55 0l.067.003.071.001.064-.001L.815 0c.017 0 .024.012.024.028 0 .017-.016.017-.03.017-.066 0-.067.007-.071.029L.623.689M.533.593.594.269H.31l.223.324z"/></symbol><use xlink:href="#u" transform="matrix(4.9813 0 0 -4.9813 202.264 8.379)"/><path stroke-width=".398" stroke-miterlimit="10" fill="none" stroke="#000" d="M43.579 20.298v87.527"/><path stroke-width=".398" stroke-linecap="round" stroke-linejoin="round" fill="none" stroke="#000" d="M45.97 105.952c-1.435.379-2.112 1.223-2.391 2.073-.28-.85-.957-1.694-2.391-2.073"/><symbol id="v"><path d="M.627.602c0 .034.002.045.079.045H.73v.036A4.593 4.593 0 0 0 .58.679L.429.683V.647h.024C.53.647.532.637.532.602V.373H.198v.229c0 .034.002.045.079.045h.024v.036a4.593 4.593 0 0 0-.15-.004L0 .683V.647h.024c.077 0 .079-.01.079-.045V.081C.103.047.101.036.024.036H0V0l.15.004L.301 0v.036H.277C.2.036.198.046.198.081v.256h.334V.081C.532.047.53.036.453.036H.429V0l.15.004L.73 0v.036H.706c-.077 0-.079.01-.079.045v.521z"/></symbol><symbol id="w"><path d="M.49.223a.24.24 0 0 1-.245.233A.24.24 0 0 1 0 .223C0 .099.11 0 .245 0S.49.099.49.223M.245.032a.147.147 0 0 0-.124.061.25.25 0 0 0-.03.139c0 .043.001.102.036.145a.155.155 0 0 0 .118.051.148.148 0 0 0 .123-.059C.396.33.399.28.399.232.399.184.396.131.367.09A.147.147 0 0 0 .245.032z"/></symbol><symbol id="x"><path d="M.768.303c0 .087-.043.138-.15.138a.177.177 0 0 1-.16-.093C.438.419.384.441.311.441A.179.179 0 0 1 .148.344H.147v.097L0 .43V.394C.067.394.075.387.075.338V.079C.075.036.065.036 0 .036V0c.002 0 .072.004.114.004C.151.004.22.001.229 0v.036c-.065 0-.075 0-.075.043v.18c0 .105.083.154.149.154.07 0 .079-.055.079-.106V.079C.382.036.372.036.307.036V0c.002 0 .072.004.114.004C.458.004.527.001.536 0v.036c-.065 0-.075 0-.075.043v.18c0 .105.083.154.149.154.07 0 .079-.055.079-.106V.079C.689.036.679.036.614.036V0c.002 0 .072.004.114.004C.765.004.834.001.843 0v.036c-.065 0-.075 0-.075.043v.224z"/></symbol><use xlink:href="#v" transform="matrix(6.9738 0 0 -6.9738 2.535 66.004)"/><use xlink:href="#w" transform="matrix(6.9738 0 0 -6.9738 8.295 66.074)"/><use xlink:href="#x" transform="matrix(6.9738 0 0 -6.9738 12.368 66.004)"/><symbol id="y"><path d="M.611.184c0 .009-.01.011-.017.011C.562.195.536.173.514.15A.262.262 0 0 0 .328.069C.196.069.101.163.101.305c0 .088.06.355.341.355C.489.66.521.649.521.605.521.57.479.507.476.503.464.486.464.484.464.479c0-.011.012-.011.017-.011.03 0 .065.027.074.038.019.022.028.04.044.071a.166.166 0 0 1 .023.075c0 .077-.08.077-.107.077A.544.544 0 0 1 .158.592.47.47 0 0 1 0 .258C0 .102.107 0 .255 0A.45.45 0 0 1 .49.073C.53.097.611.16.611.184z"/></symbol><use xlink:href="#y" transform="matrix(4.9813 0 0 -4.9813 18.94 67.125)"/><use xlink:href="#r" transform="matrix(6.9738 0 0 -6.9738 23.93 67.74)"/><symbol id="z"><path d="M.635.71c0 .005-.003.013-.013.013C.616.723.615.722.602.709L.553.652C.515.705.452.723.391.723.25.723.125.609.125.494c0-.015.003-.055.033-.092C.192.362.229.353.297.337l.085-.02C.414.309.475.287.475.212.475.131.39.036.276.036.188.036.082.067.082.178c0 .01.002.032.006.05l.001.006c0 .013-.012.013-.016.013C.059.247.058.245.054.227l-.051-.2L0 .012C0 .006.004 0 .014 0c.006 0 .007.001.02.014L.082.07C.135.012.213 0 .273 0c.151 0 .273.13.273.248a.16.16 0 0 1-.04.107c-.035.036-.05.04-.179.07a1.36 1.36 0 0 0-.063.016C.239.45.197.475.197.532c0 .079.089.159.193.159C.498.691.55.63.55.535.55.522.546.499.546.49c0-.014.012-.014.017-.014.015 0 .016.005.02.022L.635.71z"/></symbol><symbol id="A"><path d="M.099.209A.231.231 0 0 0 .021.026C.017.022.014.019.014.014.014.007.022 0 .028 0c.014 0 .099.08.099.199 0 .062-.024.109-.07.109A.056.056 0 0 1 0 .251C0 .219.023.193.058.193c.024 0 .04.016.041.016z"/></symbol><symbol id="B"><path d="M.334.599h.098c.02 0 .033 0 .033.022 0 .014-.013.014-.031.014H.341C.364.762.372.808.38.837.385.859.407.88.431.88.432.88.459.88.478.868A.06.06 0 0 1 .434.813c0-.022.017-.037.04-.037a.06.06 0 0 1 .057.061c0 .046-.049.071-.1.071a.139.139 0 0 1-.12-.075C.291.796.283.751.262.635H.183C.163.635.15.635.15.613.15.599.163.599.181.599h.074A18.16 18.16 0 0 0 .167.126C.162.104.145.028.097.028c-.001 0-.025 0-.044.012a.06.06 0 0 1 .044.055c0 .022-.017.037-.04.037A.06.06 0 0 1 0 .071C0 .026.047 0 .097 0c.064 0 .108.066.12.088A.85.85 0 0 1 .278.29l.056.309z"/></symbol><use xlink:href="#z" transform="matrix(6.9738 0 0 -6.9738 26.765 66.143)"/><use xlink:href="#A" transform="matrix(6.9738 0 0 -6.9738 31.87 67.35)"/><use xlink:href="#B" transform="matrix(6.9738 0 0 -6.9738 33.962 67.427)"/><use xlink:href="#t" transform="matrix(6.9738 0 0 -6.9738 38.614 67.74)"/><path stroke-width=".398" stroke-miterlimit="10" fill="none" stroke="#000" d="M74.217 117.054H318.27"/><path stroke-width=".398" stroke-linecap="round" stroke-linejoin="round" fill="none" stroke="#000" d="M316.396 114.663c.379 1.435 1.222 2.112 2.072 2.391-.85.28-1.693.957-2.072 2.391"/><use xlink:href="#q" transform="matrix(6.9738 0 0 -6.9738 185.689 126.054)"/><use xlink:href="#r" transform="matrix(6.9738 0 0 -6.9738 191.686 126.367)"/><use xlink:href="#s" transform="matrix(6.9738 0 0 -6.9738 194.332 124.7)"/><use xlink:href="#t" transform="matrix(6.9738 0 0 -6.9738 199.01 126.367)"/><symbol id="C"><path d="M.127.083C.119.053.118.045.042.045.016.045 0 .045 0 .017 0 0 .016 0 .033 0h.435c.18 0 .326.112.326.212C.794.274.736.341.6.358c.099.013.24.079.24.179C.84.621.741.683.605.683h-.41C.176.683.16.683.16.655.16.638.173.638.197.638c.01 0 .043 0 .064-.006 0-.012 0-.014-.003-.025L.127.083m.169.289.058.233c.008.031.008.033.05.033h.183C.686.638.733.587.733.534.733.453.625.372.485.372H.296M.248.045c-.008 0-.022 0-.032.002l.003.018.068.273h.244C.633.338.684.279.684.216.684.119.565.045.441.045H.248z"/></symbol><use xlink:href="#C" transform="matrix(4.9813 0 0 -4.9813 202.23 125.632)"/><path stroke-width=".398" stroke-miterlimit="10" fill="none" stroke="#000" d="M334.959 20.298v87.527"/><path stroke-width=".398" stroke-linecap="round" stroke-linejoin="round" fill="none" stroke="#000" d="M337.35 105.952c-1.435.379-2.112 1.223-2.391 2.073-.28-.85-.957-1.694-2.391-2.073"/><symbol id="D"><path d="M.273.322H.38C.456.322.469.31.469.277c0-.015 0-.017-.007-.045L.459.22c0-.01.007-.015.017-.015.013 0 .014.005.019.023L.549.44a.177.177 0 0 1 .004.02c0 .01-.007.015-.017.015C.522.475.521.469.516.451.496.373.467.358.382.358h-.1l.063.251C.353.64.354.643.396.643h.153C.682.643.707.611.707.528.707.495.703.474.703.466S.706.449.72.449c.015 0 .016.009.018.026l.018.174c.003.03-.004.03-.029.03H.193c-.019 0-.032 0-.032-.022 0-.014.012-.014.032-.014.001 0 .02 0 .038-.002C.252.639.254.637.254.627.254.62.251.61.25.605L.119.082C.109.043.108.036.03.036c-.017 0-.03 0-.03-.021C0 .005.007 0 .016 0l.132.004.077-.001L.304 0c.007 0 .022 0 .022.022 0 .014-.012.014-.035.014-.002 0-.027 0-.052.002C.218.04.208.041.208.055c0 .004 0 .007.003.018l.062.249z"/></symbol><use xlink:href="#D" transform="matrix(6.9738 0 0 -6.9738 337.786 66.004)"/><use xlink:href="#r" transform="matrix(6.9738 0 0 -6.9738 344.232 67.74)"/><use xlink:href="#B" transform="matrix(6.9738 0 0 -6.9738 347.053 67.427)"/><use xlink:href="#t" transform="matrix(6.9738 0 0 -6.9738 351.705 67.74)"/><path stroke-width=".398" stroke-miterlimit="10" fill="none" stroke="#d65c5c" d="M112.457 54.94v18.243"/><path stroke-width=".398" stroke-linecap="round" stroke-linejoin="round" fill="none" stroke="#d65c5c" d="M114.848 71.31c-1.435.379-2.112 1.223-2.391 2.073-.28-.85-.957-1.694-2.391-2.073"/><path stroke-width=".398" stroke-miterlimit="10" fill="none" stroke="#d65c5c" d="M119.505 46.663h77.61"/><path stroke-width=".398" stroke-linecap="round" stroke-linejoin="round" fill="none" stroke="#d65c5c" d="M195.241 44.272c.379 1.435 1.222 2.112 2.072 2.391-.85.28-1.693.957-2.072 2.391"/><path stroke-width=".398" stroke-miterlimit="10" fill="none" stroke="#d65c5c" d="M222.926 55.494V72.63"/><path stroke-width=".398" stroke-linecap="round" stroke-linejoin="round" fill="none" stroke="#d65c5c" d="M225.317 70.757c-1.435.378-2.112 1.222-2.391 2.072-.279-.85-.956-1.694-2.391-2.072"/><path stroke-width=".398" stroke-miterlimit="10" fill="none" stroke="#d65c5c" d="M127.184 81.859h23.114"/><path stroke-width=".398" stroke-linecap="round" stroke-linejoin="round" fill="none" stroke="#d65c5c" d="M148.425 79.468c.379 1.434 1.222 2.112 2.072 2.39-.85.28-1.693.957-2.072 2.392"/></svg>